<svg version="1.1" xmlns="http://www.w3.org/2000/svg" x="0" y="0" width="32" height="32" viewBox="0 0 57 57" style="enable-background:new 0 0 57 57"><style>.st0{fill:#000}</style><path class="st0" d="M39.8 55.2c-8.5-4.7-13.4-10.8-14.7-18-1.1-6.2.4-13.3 4.5-21.2C32.5 10.6 36 5.5 40.1.9l.8-.9.8.9c4.1 4.6 7.6 9.7 10.5 15.1 4.1 7.9 5.6 15 4.5 21.1-1.3 7.3-6.2 13.3-14.7 18l-1.1.6-1.1-.5zm1.1-52.6c-3.8 4.3-7 9.1-9.7 14.2-3.9 7.5-5.4 14.2-4.4 20 1.2 6.7 5.8 12.4 13.8 16.8l.3.1.3-.2c8-4.4 12.6-10.1 13.8-16.8 1-5.8-.4-12.5-4.4-20-2.7-5-5.9-9.7-9.7-14.1z"/><path class="st0" d="M40.7 51.7c-7-4.1-11.1-9.2-12.1-15.1-1-5.4.5-11.8 4.2-18.9 2.2-4.2 4.8-8.1 7.8-11.8l.3-.4.3.4c3 3.7 5.6 7.6 7.8 11.8 3.7 7.2 5.1 13.5 4.2 18.9-1 6-5.1 11-12.1 15.1l-.2.1-.2-.1zm.2-43.5c-2.5 3.2-4.7 6.7-6.6 10.2-3.5 6.8-4.9 12.8-4 17.8.9 5.2 4.5 9.8 10.6 13.5 6.1-3.7 9.7-8.3 10.6-13.5.9-5-.5-11-4-17.8-1.9-3.6-4.1-7-6.6-10.2z"/><path class="st0" d="M40.7 47.5c-5-3.3-7.9-7.2-8.7-11.6-.8-4.6.5-10.2 3.8-16.7 1.4-2.6 3-5.2 4.7-7.6l.4-.5.4.5c1.7 2.4 3.3 5 4.7 7.6 3.3 6.5 4.7 12.1 3.8 16.7-.8 4.4-3.7 8.3-8.7 11.6l-.1.2-.3-.2zm.2-33.3c-1.3 1.9-2.5 3.9-3.5 5.9-3.2 6.1-4.4 11.4-3.7 15.6.6 3.7 3.1 7 7.2 10 4.1-2.9 6.5-6.3 7.2-10 .7-4.2-.5-9.5-3.7-15.6-1.1-2.1-2.2-4-3.5-5.9z"/><path class="st0" d="M40.6 43.2c-2.6-1.9-4.5-4.7-5.2-7.8-.7-3.9.5-8.7 3.5-14.5.5-.9 1-1.9 1.6-2.8l.4-.6.4.6c.6 1 1.1 1.9 1.6 2.8 3 5.8 4.2 10.6 3.5 14.5-.7 3.2-2.6 6-5.2 7.8l-.3.2-.3-.2zm.3-22.3c-.1.3-.3.5-.4.8-2.8 5.4-3.9 9.9-3.3 13.4.5 2.4 1.8 4.5 3.8 6.1 1.9-1.5 3.2-3.7 3.8-6.1.6-3.5-.5-8-3.3-13.4l-.6-.8z"/><path class="st0" d="M40.6 38.2c-.8-1-1.4-2.2-1.7-3.5-.3-3.1.3-6.2 1.6-9l.4-1 .4 1c1.4 2.8 1.9 5.9 1.6 9-.3 1.3-.8 2.5-1.7 3.5l-.3.4-.3-.4zm.3-8.2c-.4 1.4-.5 2.9-.3 4.4.1.3.2.7.3 1 .1-.3.2-.7.3-1 .2-1.4.1-2.9-.3-4.4z"/></svg>